<svg width="12" height="12" viewBox="0 0 12 12" fill="none" xmlns="http://www.w3.org/2000/svg">
<g clip-path="url(#clip0_2032_8186)">
<path d="M1.61658 5.66748C1.27541 5.66748 1 5.89875 1 6.18525L1 9.98226C1 10.2688 1.27541 10.5 1.61658 10.5L8.60448 10.5C8.94565 10.5 9.22106 10.2688 9.22106 9.98226L9.22106 7.77864L9.22106 6.18525C9.22106 5.89875 8.94565 5.66748 8.60448 5.66748L1.61658 5.66748Z" stroke="white" stroke-width="1.125" stroke-miterlimit="10" stroke-linecap="round" stroke-linejoin="round"/>
<path d="M8.60453 5.66748V6.22998V5.66748ZM9.22111 6.18525H9.78361H9.22111ZM10.4723 6.11385L10.9672 6.38127L10.4723 6.11385ZM3.63237 1.7059L3.1375 1.43848V1.43848L3.63237 1.7059ZM4.39155 1.58091L4.14896 2.08841L4.39155 1.58091ZM10.621 4.55869L10.8636 4.05119L10.621 4.55869ZM10.9612 5.20916L10.4663 4.94174L10.9612 5.20916ZM1.78548 5.12363L2.28035 5.39105L1.78548 5.12363ZM10.2395 6.54466L9.99691 7.05216L10.4799 7.28302L10.7344 6.81208L10.2395 6.54466ZM2.91069 3.0414L2.41582 2.77398L2.13482 3.29398L2.6681 3.5489L2.91069 3.0414ZM1.80929 5.66748L1.33564 5.97091L1.50161 6.22998H1.80929V5.66748ZM9.22111 8.42924H8.65861V10.6534L9.71597 8.69666L9.22111 8.42924ZM9.1991 6.04734L8.66444 6.2221L9.1991 6.04734ZM10.7149 5.60635L3.38608 2.10309L2.9009 3.11809L10.2297 6.62135L10.7149 5.60635ZM3.63836 2.87801L4.12724 1.97331L3.1375 1.43848L2.64862 2.34317L3.63836 2.87801ZM4.12724 1.97331C4.10526 2.01398 4.07647 2.03911 4.05592 2.05199C4.03685 2.06395 4.02695 2.06442 4.03275 2.06346C4.0381 2.06258 4.05247 2.06134 4.07461 2.06478C4.09634 2.06815 4.12195 2.0755 4.14896 2.08841L4.63414 1.07342C4.38741 0.955472 4.11049 0.910521 3.85001 0.953403C3.59274 0.995756 3.30033 1.13717 3.1375 1.43848L4.12724 1.97331ZM4.14896 2.08841L10.3785 5.06619L10.8636 4.05119L4.63414 1.07342L4.14896 2.08841ZM10.3785 5.06619C10.4364 5.0939 10.4526 5.12321 10.4502 5.11864C10.4483 5.11506 10.4393 5.09628 10.4378 5.06281C10.4362 5.02691 10.4439 4.9832 10.4663 4.94174L11.4561 5.47658C11.6228 5.16795 11.5738 4.8397 11.4471 4.59734C11.3217 4.35752 11.1098 4.16886 10.8636 4.05119L10.3785 5.06619ZM10.4663 4.94174L9.97744 5.84644L10.9672 6.38127L11.4561 5.47658L10.4663 4.94174ZM2.28035 5.39105L3.63836 2.87801L2.64862 2.34317L1.29062 4.85621L2.28035 5.39105ZM9.97744 5.84644L9.74464 6.27724L10.7344 6.81208L10.9672 6.38127L9.97744 5.84644ZM3.40556 3.30881L3.63836 2.87801L2.64862 2.34317L2.41582 2.77398L3.40556 3.30881ZM2.28293 5.36405C2.28173 5.36217 2.28375 5.36441 2.28412 5.3715C2.28431 5.37501 2.28403 5.37899 2.28314 5.38301C2.28222 5.38712 2.28097 5.3899 2.28035 5.39105L1.29062 4.85621C1.09059 5.22637 1.12927 5.64876 1.33564 5.97091L2.28293 5.36405ZM8.65861 6.18525V8.42924H9.78361V6.18525H8.65861ZM9.97744 5.84644L8.72624 8.16182L9.71597 8.69666L10.9672 6.38127L9.97744 5.84644ZM1.80929 6.22998H8.40444V5.10498H1.80929V6.22998ZM8.40444 6.22998H8.60453V5.10498H8.40444V6.22998ZM8.64703 5.15998L3.15328 2.5339L2.6681 3.5489L8.16185 6.17498L8.64703 5.15998ZM10.4821 6.03716L9.44169 5.53984L8.95651 6.55484L9.99691 7.05216L10.4821 6.03716ZM8.60453 6.22998C8.64147 6.22998 8.66528 6.2405 8.67544 6.24709C8.68642 6.25421 8.67371 6.25046 8.66444 6.2221L9.73376 5.87257C9.57205 5.37784 9.08222 5.10498 8.60453 5.10498V6.22998ZM8.66444 6.2221C8.66076 6.21085 8.65861 6.19816 8.65861 6.18525H9.78361C9.78361 6.07678 9.76614 5.97161 9.73376 5.87257L8.66444 6.2221Z" fill="white"/>
<path d="M8.60449 5.66748V6.22998V5.66748ZM10.4723 6.11386L10.9671 6.38128C11.0403 6.24578 11.0548 6.08618 11.0071 5.93973C10.9595 5.79328 10.8538 5.67278 10.7149 5.60636L10.4723 6.11386ZM3.14345 2.6106L3.38604 2.1031C3.11552 1.97379 2.79112 2.07939 2.64858 2.34318L3.14345 2.6106ZM10.2395 6.54467L9.99687 7.05217L10.4798 7.28303L10.7343 6.81209L10.2395 6.54467ZM2.91064 3.0414L2.41578 2.77398L2.13478 3.29399L2.66805 3.5489L2.91064 3.0414ZM8.4044 5.66748L8.1618 6.17498L8.27687 6.22998H8.4044V5.66748ZM9.19906 6.04734L8.6644 6.22211L8.73921 6.45099L8.95647 6.55484L9.19906 6.04734ZM10.7149 5.60636L3.38604 2.1031L2.90085 3.1181L10.2297 6.62136L10.7149 5.60636ZM9.97739 5.84644L9.74459 6.27725L10.7343 6.81209L10.9671 6.38128L9.97739 5.84644ZM3.40551 3.30882L3.63831 2.87801L2.64858 2.34318L2.41578 2.77398L3.40551 3.30882ZM8.4044 6.22998H8.60449V5.10498H8.4044V6.22998ZM8.64699 5.15998L3.15324 2.5339L2.66805 3.5489L8.1618 6.17498L8.64699 5.15998ZM10.4821 6.03717L9.44165 5.53984L8.95647 6.55484L9.99687 7.05217L10.4821 6.03717ZM8.60449 6.22998C8.64143 6.22998 8.66524 6.24051 8.6754 6.2471C8.68637 6.25422 8.67367 6.25047 8.6644 6.22211L9.73372 5.87257C9.57201 5.37785 9.08218 5.10498 8.60449 5.10498V6.22998Z" fill="white"/>
<path d="M8.60453 5.66758V6.23008V5.66758ZM9.22111 6.18536H9.78361H9.22111ZM1.78548 5.12374L2.28035 5.39115L1.78548 5.12374ZM10.2395 6.54477L10.7344 6.81219L11.0154 6.29218L10.4821 6.03727L10.2395 6.54477ZM2.91069 3.0415L3.15328 2.534L2.67031 2.30314L2.41582 2.77409L2.91069 3.0415ZM1.80929 5.66758L1.33564 5.97101L1.50161 6.23008H1.80929V5.66758ZM9.22111 8.42935H8.65861V10.6535L9.71598 8.69677L9.22111 8.42935ZM9.1991 6.04744L8.66444 6.22221L9.1991 6.04744ZM2.28293 5.36416C2.28173 5.36228 2.28375 5.36452 2.28412 5.37161C2.28431 5.37512 2.28403 5.37909 2.28314 5.38312C2.28222 5.38723 2.28097 5.39001 2.28035 5.39115L1.29062 4.85632C1.09059 5.22648 1.12927 5.64887 1.33564 5.97101L2.28293 5.36416ZM8.65861 6.18536V8.42935H9.78361V6.18536H8.65861ZM1.80929 6.23008H8.40444V5.10508H1.80929V6.23008ZM8.40444 6.23008H8.60453V5.10508H8.40444V6.23008ZM8.64703 5.16009L3.15328 2.534L2.6681 3.549L8.16185 6.17508L8.64703 5.16009ZM10.4821 6.03727L9.44169 5.53994L8.95651 6.55494L9.99691 7.05227L10.4821 6.03727ZM8.60453 6.23008C8.64147 6.23008 8.66528 6.24061 8.67544 6.2472C8.68642 6.25432 8.67371 6.25057 8.66444 6.22221L9.73376 5.87268C9.57205 5.37795 9.08222 5.10508 8.60453 5.10508V6.23008ZM8.66444 6.22221C8.66076 6.21095 8.65861 6.19826 8.65861 6.18536H9.78361C9.78361 6.07689 9.76614 5.97171 9.73376 5.87268L8.66444 6.22221ZM2.41582 2.77409L1.29062 4.85632L2.28035 5.39115L3.40556 3.30892L2.41582 2.77409ZM9.74464 6.27735L8.72624 8.16193L9.71598 8.69677L10.7344 6.81219L9.74464 6.27735Z" fill="white"/>
<path fill-rule="evenodd" clip-rule="evenodd" d="M10.4724 6.11385L3.14355 2.61059L3.63244 1.7059C3.74837 1.49135 4.08747 1.43553 4.39162 1.58091L10.6211 4.55869C10.9253 4.70408 11.0772 4.99462 10.9613 5.20916L10.4724 6.11385Z" stroke="white" stroke-width="1.125" stroke-miterlimit="10" stroke-linecap="round" stroke-linejoin="round"/>
<path d="M3.45112 7.842L2.65967 7.84201C2.45256 7.84201 2.28467 7.67412 2.28467 7.46701V7.2505C2.28467 7.04339 2.45256 6.8755 2.65966 6.8755L3.45111 6.87549C3.65822 6.87549 3.82612 7.04338 3.82612 7.25049V7.467C3.82612 7.67411 3.65822 7.842 3.45112 7.842Z" stroke="white" stroke-width="1.125" stroke-linecap="round"/>
<path d="M2.28467 9.29183H2.79848M7.93664 9.29183H7.67974M6.3952 9.29183H5.88138M4.59684 9.29183L4.08302 9.29182M5.62447 7.11719H7.67974" stroke="white" stroke-width="1.125" stroke-linecap="round"/>
</g>
<defs>
<clipPath id="clip0_2032_8186">
<rect width="12" height="12" fill="white"/>
</clipPath>
</defs>
</svg>
