<svg width="19" height="19" viewBox="0 0 19 19" fill="none" xmlns="http://www.w3.org/2000/svg">
<path d="M12.19 9.05759L9.94059 6.80759C9.35574 6.22259 9.35574 5.27009 9.94059 4.68509L12.19 2.43509C12.7748 1.85009 13.7271 1.85009 14.3119 2.43509L16.5613 4.68509C17.1462 5.27009 17.1462 6.22259 16.5613 6.80759L14.3119 9.05759C13.7196 9.64259 12.7673 9.64259 12.19 9.05759Z" stroke="white" stroke-width="1.125" stroke-miterlimit="10" stroke-linecap="round" stroke-linejoin="round"/>
<path d="M9.49822 16.25H4.24961C3.42482 16.25 2.75 15.575 2.75 14.75V9.5H9.49822V16.25Z" stroke="white" stroke-width="1.125" stroke-miterlimit="10" stroke-linecap="round" stroke-linejoin="round"/>
<path d="M9.49822 9.5H2.75V4.25C2.75 3.425 3.42482 2.75 4.24961 2.75H9.49822V9.5Z" stroke="white" stroke-width="1.125" stroke-miterlimit="10" stroke-linecap="round" stroke-linejoin="round"/>
<path d="M14.7467 16.25H9.49805V9.5H16.2463V14.75C16.2463 15.575 15.5714 16.25 14.7467 16.25Z" stroke="white" stroke-width="1.125" stroke-miterlimit="10" stroke-linecap="round" stroke-linejoin="round"/>
</svg>
