<svg width="12" height="13" viewBox="0 0 12 13" fill="none" xmlns="http://www.w3.org/2000/svg">
<path d="M2.5 7C2.775 7 3 6.775 3 6.5C3 6.225 2.775 6 2.5 6C2.225 6 2 6.225 2 6.5C2 6.775 2.225 7 2.5 7Z" stroke="white" stroke-width="1.125" stroke-miterlimit="10" stroke-linecap="round" stroke-linejoin="round"/>
<path d="M9.5 7C9.775 7 10 6.775 10 6.5C10 6.225 9.775 6 9.5 6C9.225 6 9 6.225 9 6.5C9 6.775 9.225 7 9.5 7Z" stroke="white" stroke-width="1.125" stroke-miterlimit="10" stroke-linecap="round" stroke-linejoin="round"/>
<path d="M6 10.5C6.275 10.5 6.5 10.275 6.5 10C6.5 9.725 6.275 9.5 6 9.5C5.725 9.5 5.5 9.725 5.5 10C5.5 10.275 5.725 10.5 6 10.5Z" stroke="white" stroke-width="1.125" stroke-miterlimit="10" stroke-linecap="round" stroke-linejoin="round"/>
<path d="M6 3.5C6.275 3.5 6.5 3.275 6.5 3C6.5 2.725 6.275 2.5 6 2.5C5.725 2.5 5.5 2.725 5.5 3C5.5 3.275 5.725 3.5 6 3.5Z" stroke="white" stroke-width="1.125" stroke-miterlimit="10" stroke-linecap="round" stroke-linejoin="round"/>
<path d="M6 7C6.275 7 6.5 6.775 6.5 6.5C6.5 6.225 6.275 6 6 6C5.725 6 5.5 6.225 5.5 6.5C5.5 6.775 5.725 7 6 7Z" stroke="white" stroke-width="1.125" stroke-miterlimit="10" stroke-linecap="round" stroke-linejoin="round"/>
<path d="M2.5 10.5C2.775 10.5 3 10.275 3 10C3 9.725 2.775 9.5 2.5 9.5C2.225 9.5 2 9.725 2 10C2 10.275 2.225 10.5 2.5 10.5Z" stroke="white" stroke-width="1.125" stroke-miterlimit="10" stroke-linecap="round" stroke-linejoin="round"/>
<path d="M9.5 10.5C9.775 10.5 10 10.275 10 10C10 9.725 9.775 9.5 9.5 9.5C9.225 9.5 9 9.725 9 10C9 10.275 9.225 10.5 9.5 10.5Z" stroke="white" stroke-width="1.125" stroke-miterlimit="10" stroke-linecap="round" stroke-linejoin="round"/>
<path d="M2.5 3.5C2.775 3.5 3 3.275 3 3C3 2.725 2.775 2.5 2.5 2.5C2.225 2.5 2 2.725 2 3C2 3.275 2.225 3.5 2.5 3.5Z" stroke="white" stroke-width="1.125" stroke-miterlimit="10" stroke-linecap="round" stroke-linejoin="round"/>
<path d="M9.5 3.5C9.775 3.5 10 3.275 10 3C10 2.725 9.775 2.5 9.5 2.5C9.225 2.5 9 2.725 9 3C9 3.275 9.225 3.5 9.5 3.5Z" stroke="white" stroke-width="1.125" stroke-miterlimit="10" stroke-linecap="round" stroke-linejoin="round"/>
</svg>
